<?xml version="1.0" standalone="no"?><!DOCTYPE svg PUBLIC "-//W3C//DTD SVG 1.1//EN" "http://www.w3.org/Graphics/SVG/1.1/DTD/svg11.dtd"><svg t="1668252655142" class="icon" viewBox="0 0 1536 1024" version="1.1" xmlns="http://www.w3.org/2000/svg" p-id="2446" width="96" height="64" xmlns:xlink="http://www.w3.org/1999/xlink"><path d="M901.632 69.486c-21.943 7.314-29.257 29.257-21.943 51.2l277.943 629.028c7.314 21.943 29.257 29.257 51.2 21.943s29.257-29.257 21.943-51.2L952.832 91.43c-14.629-21.943-29.257-29.258-51.2-21.943zM477.403 296.229H345.746l-43.885 58.514 219.428 307.2h138.972z" p-id="2447" fill="#ffffff"></path><path d="M421.888 130.34c19.602-10.02 39.278-3.657 49.225 15.946l285.55 560.493c9.947 19.53 3.657 39.205-15.945 49.152s-39.278 3.584-49.225-15.945l-285.55-560.493c-9.948-19.53-3.584-39.205 15.945-49.152z" p-id="2448" fill="#ffffff"></path><path d="M510.098 503.589l29.257 29.257c65.829 43.885 138.972 36.571 212.115-29.257 29.257-21.943 51.2-36.572 73.143-58.515l14.628-14.628c36.572-36.572 80.457-80.457 124.343-117.029l36.571-36.571 14.629-14.629-51.2-51.2-14.629 14.629-36.571 36.571c-43.886 36.572-80.457 80.457-124.343 117.029l-14.628 14.628c-21.943 21.943-43.886 36.572-58.515 58.515-51.2 36.571-95.085 43.885-131.657 14.628-7.314 0-14.628-7.314-14.628-14.628l-58.515 51.2z m-234.057 504.685c-146.286 0-263.314-117.028-263.314-263.314S129.755 481.646 276.04 481.646 539.355 598.674 539.355 744.96s-109.714 263.314-263.314 263.314z m0-73.143c109.714 0 190.172-87.771 190.172-190.171S385.755 547.474 276.04 547.474 85.87 635.246 85.87 737.646 173.64 935.13 276.04 935.13z m921.6 73.143c-146.286 0-263.314-117.028-263.314-263.314s117.028-263.314 263.314-263.314 263.314 117.028 263.314 263.314-109.714 263.314-263.314 263.314z m0-73.143c109.714 0 190.172-87.771 190.172-190.171s-87.772-190.171-190.172-190.171S1007.47 642.56 1007.47 744.96s87.771 190.171 190.171 190.171zM334.555 108.617h175.543c21.943 0 36.572 14.629 36.572 36.572s-14.629 36.571-36.572 36.571H334.555c-21.942 0-36.571-14.629-36.571-36.571s14.629-36.572 36.571-36.572z m490.058-58.514h175.542c21.943 0 36.572 14.628 36.572 36.571s-14.629 36.572-36.572 36.572H824.613c-21.943 0-36.572-14.629-36.572-36.572s14.629-36.571 36.572-36.571z m-102.4 833.828c-73.143 0-131.658-58.514-131.658-131.657s65.829-124.343 131.658-124.343S853.87 686.446 853.87 752.274s-58.515 131.657-131.657 131.657z m0-73.142c29.257 0 58.514-21.943 58.514-58.515 0-29.257-21.943-51.2-58.514-51.2-29.258 0-51.2 21.943-51.2 51.2s21.942 58.515 51.2 58.515z" p-id="2449" fill="#ffffff"></path><path d="M736.841 810.789l-409.6-36.572c-14.628 0-29.257-14.628-29.257-21.943 0-14.628 14.629-21.943 21.943-21.943l409.6-29.257-7.314-73.143-402.286 29.258c-51.2 0-95.086 43.885-95.086 95.085 0 51.2 43.886 95.086 95.086 95.086l402.286 29.257 14.628-65.828z" p-id="2450" fill="#ffffff"></path></svg>